<svg width="13" height="12" viewBox="0 0 13 12" fill="none" xmlns="http://www.w3.org/2000/svg">
<path d="M1.32226 1.91049C1.91113 1.22261 2.73547 0.832006 3.64385 0.800733C4.33122 0.777722 4.95399 0.969238 5.52434 1.37617C5.8156 1.58008 6.06679 1.82979 6.30227 2.12707C6.5088 1.81326 6.74921 1.53846 7.02264 1.31479C7.55732 0.866548 8.17443 0.631366 8.84962 0.607467C9.758 0.576194 10.6155 0.906607 11.2544 1.54994C11.8819 2.18027 12.2465 3.05939 12.2864 4.02449C12.3245 5.01381 11.9877 5.93929 11.2297 6.93153C10.5528 7.82005 9.55652 8.72185 8.40174 9.78262C8.0081 10.1437 7.56221 10.5497 7.10238 10.979C6.98393 11.0922 6.81942 11.1655 6.64802 11.1652C6.47573 11.177 6.32092 11.117 6.18182 11.0094C5.68456 10.6078 5.20989 10.2322 4.79259 9.90949C3.56505 8.94315 2.4992 8.11038 1.7518 7.27644C0.91314 6.35061 0.513841 5.44459 0.475699 4.45526C0.447973 3.49106 0.746461 2.58715 1.32226 1.91049Z" fill="#F8ABCB"/>
</svg>
