<svg width="9" height="15" viewBox="0 0 9 15" fill="none" xmlns="http://www.w3.org/2000/svg">
<path d="M5.81733 8.84085C6.60263 8.66012 7.28648 8.25152 7.86513 7.61113C8.61661 6.78215 8.99611 5.78423 8.99611 4.64881C8.99611 3.90626 8.81576 3.19122 8.4588 2.52332C8.09433 1.83578 7.57956 1.2936 6.92201 0.912511C6.27949 0.535346 5.59564 0.342834 4.88548 0.342834C4.17157 0.342834 3.48396 0.531417 2.8452 0.904654C2.19516 1.28575 1.67663 1.82399 1.3084 2.51154L1.30465 2.51546C0.947693 3.19122 0.767334 3.90626 0.767334 4.64881C0.767334 5.411 0.955207 6.14175 1.32719 6.82537L1.33095 6.83322C1.71421 7.51683 2.23273 8.04722 2.87525 8.40867L2.88277 8.4126C3.24348 8.61297 3.59292 8.75441 3.93485 8.84084V10.0666H0.981509V12.035H3.93485V14.9816H5.81732V12.035H8.76315V10.0666H5.81732L5.81733 8.84085ZM4.87797 2.29152C5.26498 2.29152 5.62945 2.39367 6.00144 2.60583L6.00895 2.60976C6.36591 2.8062 6.63644 3.08514 6.83559 3.45838C7.04225 3.84733 7.1437 4.24021 7.1437 4.65274C7.1437 5.3167 6.92577 5.86281 6.47863 6.33427C6.03526 6.79786 5.51297 7.02573 4.87797 7.02573C4.25048 7.02573 3.72444 6.80179 3.2773 6.33427C2.83392 5.86674 2.61599 5.3167 2.61599 4.65274C2.61599 4.24021 2.71744 3.84733 2.9241 3.45838C3.12325 3.08514 3.39378 2.8062 3.74698 2.60583C4.12648 2.39367 4.49471 2.29152 4.87797 2.29152Z" fill="#F772E1"/>
</svg>
