<svg width="13" height="13" viewBox="0 0 13 13" fill="none" xmlns="http://www.w3.org/2000/svg">
<path d="M10.1859 0.912491H8.19137C7.47375 1.63298 7.07141 2.03693 6.35379 2.75742L8.88656 2.75742L7.02743 4.62397C6.41282 4.24082 5.68764 4.01952 4.91096 4.01952C2.69194 4.01952 0.893066 5.82558 0.893066 8.05347C0.893066 10.2814 2.69194 12.0874 4.91096 12.0874C7.12997 12.0874 8.92885 10.2814 8.92885 8.05347C8.92885 7.27369 8.70843 6.54561 8.3268 5.92853L10.1859 4.06198V6.60487C10.9035 5.88438 11.3059 5.48044 12.0235 4.75995V2.75742V0.912491H10.1859ZM4.91096 10.3195C3.66443 10.3195 2.65392 9.30498 2.65392 8.05347C2.65392 6.80196 3.66443 5.78741 4.91096 5.78741C6.15749 5.78741 7.168 6.80196 7.168 8.05347C7.168 9.30498 6.15749 10.3195 4.91096 10.3195Z" fill="#CD8EC0"/>
</svg>
