<?xml version="1.0" standalone="no"?>
<!DOCTYPE svg PUBLIC "-//W3C//DTD SVG 20010904//EN"
 "http://www.w3.org/TR/2001/REC-SVG-20010904/DTD/svg10.dtd">
<svg version="1.0" xmlns="http://www.w3.org/2000/svg"
 width="228.000000pt" height="248.000000pt" viewBox="0 0 228.000000 248.000000"
 preserveAspectRatio="xMidYMid meet">
<g transform="translate(0.000000,248.000000) scale(0.100000,-0.100000)"
fill="#000000" stroke="none">
<path d="M807 2398 c-44 -104 -67 -192 -74 -287 -6 -69 -5 -73 13 -68 10 3 33
9 49 12 71 16 65 -4 65 221 0 112 -4 204 -9 204 -5 0 -25 -37 -44 -82z"/>
<path d="M1430 2277 l0 -205 48 -11 c26 -7 55 -14 66 -17 17 -6 18 -1 11 57
-4 35 -14 95 -22 134 -16 71 -78 231 -94 241 -5 3 -9 -81 -9 -199z"/>
<path d="M765 1951 c-97 -24 -182 -118 -214 -239 -22 -80 -31 -202 -21 -276
13 -93 82 -239 140 -295 117 -114 324 -47 380 123 21 64 8 412 -19 501 -46
153 -137 217 -266 186z"/>
<path d="M1370 1949 c-106 -32 -168 -165 -191 -410 -25 -259 17 -381 150 -436
53 -22 138 -20 187 5 112 57 194 220 194 386 0 205 -75 387 -182 442 -38 20
-114 26 -158 13z"/>
<path d="M85 1828 c-41 -86 -73 -204 -82 -302 -5 -57 -4 -68 8 -64 8 3 38 13
66 22 l53 18 0 199 c0 109 -2 199 -5 199 -4 0 -21 -33 -40 -72z"/>
<path d="M2150 1700 l0 -199 63 -19 62 -18 3 40 c4 47 -12 148 -34 215 -23 69
-76 181 -85 181 -5 0 -9 -90 -9 -200z"/>
<path d="M100 1393 c-35 -13 -72 -60 -87 -112 -30 -105 2 -314 77 -509 38 -99
77 -147 145 -178 169 -79 356 38 358 225 0 50 -7 74 -42 148 -122 255 -289
435 -402 432 -19 0 -41 -3 -49 -6z"/>
<path d="M2006 1358 c-18 -18 -58 -78 -90 -132 -76 -130 -117 -172 -215 -224
-45 -24 -86 -53 -92 -64 -20 -37 -5 -148 27 -207 54 -101 169 -181 259 -181
68 0 138 30 186 79 38 40 50 63 77 148 51 160 66 238 66 363 1 98 -2 122 -21
162 -41 90 -137 117 -197 56z"/>
<path d="M1065 1029 c-102 -13 -158 -59 -265 -219 -100 -149 -131 -179 -293
-289 -199 -135 -263 -216 -238 -306 13 -50 87 -149 133 -182 32 -22 54 -28
108 -31 58 -4 83 1 186 36 211 72 275 85 414 86 141 0 193 -10 412 -80 158
-51 218 -56 286 -23 75 37 162 165 162 239 0 89 -65 161 -261 290 -68 45 -137
94 -153 108 -16 15 -72 86 -126 157 -122 164 -167 201 -264 214 -28 3 -74 4
-101 0z"/>
</g>
</svg>
