<svg width="24" height="24" viewBox="0 0 24 24" fill="none" xmlns="http://www.w3.org/2000/svg">
<path fill-rule="evenodd" clip-rule="evenodd" d="M16.7649 4.16231L18.7099 5.74531C18.8977 5.9283 19.0029 6.17982 19.0014 6.44201C18.9999 6.70421 18.8918 6.9545 18.7019 7.13531L17.2239 8.93531L12.1939 15.0723C12.1068 15.1749 11.9896 15.2473 11.8589 15.2793L9.25089 15.8793C8.90484 15.8936 8.60642 15.6384 8.56689 15.2943L8.68889 12.7213C8.69794 12.5899 8.74994 12.4652 8.83689 12.3663L13.6499 6.50131L15.3449 4.43331C15.6742 3.98505 16.2936 3.86684 16.7649 4.16231Z" stroke="#FF9FC2" stroke-width="1.5" stroke-linecap="round" stroke-linejoin="round"/>
<path d="M5 18.2413C4.58579 18.2413 4.25 18.5771 4.25 18.9913C4.25 19.4056 4.58579 19.7413 5 19.7413V18.2413ZM18.7 19.7413C19.1142 19.7413 19.45 19.4056 19.45 18.9913C19.45 18.5771 19.1142 18.2413 18.7 18.2413V19.7413ZM14.3455 6.22062C14.1904 5.83652 13.7534 5.65082 13.3693 5.80586C12.9852 5.9609 12.7995 6.39796 12.9545 6.78206L14.3455 6.22062ZM17.3893 9.66991C17.7933 9.57863 18.0468 9.17711 17.9556 8.77308C17.8643 8.36904 17.4628 8.1155 17.0587 8.20678L17.3893 9.66991ZM5 19.7413H18.7V18.2413H5V19.7413ZM12.9545 6.78206C13.1872 7.35843 13.665 8.18012 14.3765 8.8128C15.1011 9.45718 16.133 9.95371 17.3893 9.66991L17.0587 8.20678C16.416 8.35198 15.8609 8.12551 15.3733 7.69189C14.8725 7.24656 14.5128 6.63526 14.3455 6.22062L12.9545 6.78206Z" fill="#FF9FC2"/>
</svg>
